<svg xmlns="http://www.w3.org/2000/svg" xmlns:xlink="http://www.w3.org/1999/xlink" width="504" height="474" viewBox="0 0 504 474">
  <defs>
    <clipPath id="clip-path">
      <rect id="Rectangle_18497" data-name="Rectangle 18497" width="504" height="474" transform="translate(1140 158)" fill="#fff" stroke="#707070" stroke-width="1" opacity="0.37"/>
    </clipPath>
    <clipPath id="clip-path-2">
      <path id="Polygon_6" data-name="Polygon 6" d="M250.619,66.651c13.129-27.025,51.632-27.025,64.762,0l45.506,93.667a36,36,0,0,0,27.541,19.942l103.324,14.019c29.917,4.059,41.849,40.925,19.985,61.744l-75.011,71.427a36,36,0,0,0-10.6,32.5l18.484,101.83c5.376,29.617-25.809,52.361-52.366,38.192l-92.3-49.243a36,36,0,0,0-33.891,0l-92.3,49.243c-26.558,14.169-57.742-8.575-52.366-38.192l18.484-101.83a36,36,0,0,0-10.6-32.5L54.264,256.022C32.4,235.2,44.332,198.337,74.249,194.278l103.324-14.019a36,36,0,0,0,27.541-19.942Z" transform="translate(-0.153 0.459)" fill="#e7f8f6"/>
    </clipPath>
    <clipPath id="clip-path-3">
      <path id="Polygon_7" data-name="Polygon 7" d="M268.609,29.623a16,16,0,0,1,28.783,0l68.178,140.333a16,16,0,0,0,12.24,8.863L533,199.875a16,16,0,0,1,8.882,27.442L428.911,334.889a16,16,0,0,0-4.709,14.445L452,502.458a16,16,0,0,1-23.274,16.974L290.531,445.707a16,16,0,0,0-15.062,0L137.277,519.432A16,16,0,0,1,114,502.458L141.8,349.334a16,16,0,0,0-4.709-14.445L24.117,227.316A16,16,0,0,1,33,199.875l155.191-21.056a16,16,0,0,0,12.24-8.863Z" transform="translate(-0.153 0.459)" fill="#fff"/>
    </clipPath>
    <clipPath id="clip-path-4">
      <path id="Polygon_8" data-name="Polygon 8" d="M268.609,29.623a16,16,0,0,1,28.783,0l68.178,140.333a16,16,0,0,0,12.24,8.863L533,199.875a16,16,0,0,1,8.882,27.442L428.911,334.889a16,16,0,0,0-4.709,14.445L452,502.458a16,16,0,0,1-23.274,16.974L290.531,445.707a16,16,0,0,0-15.062,0L137.277,519.432A16,16,0,0,1,114,502.458L141.8,349.334a16,16,0,0,0-4.709-14.445L24.117,227.316A16,16,0,0,1,33,199.875l155.191-21.056a16,16,0,0,0,12.24-8.863Z" transform="translate(-0.153 0.459)" fill="#f2f2f2"/>
    </clipPath>
    <clipPath id="clip-path-5">
      <path id="Path_88555" data-name="Path 88555" d="M20.5,12.073C3.829,24.749-4.32,42.09,2.3,50.807S27.82,56.314,44.5,43.64,69.321,13.622,62.7,4.906C60.175,1.59,55.882,0,50.608,0,42.02,0,30.836,4.22,20.5,12.073" fill="none"/>
    </clipPath>
    <linearGradient id="linear-gradient" x1="0.111" y1="0.933" x2="0.118" y2="0.933" gradientUnits="objectBoundingBox">
      <stop offset="0" stop-color="#ffbc04"/>
      <stop offset="0.057" stop-color="#ffc106"/>
      <stop offset="0.127" stop-color="#ffd00f"/>
      <stop offset="0.203" stop-color="#ffe81d"/>
      <stop offset="0.258" stop-color="#ffff2b"/>
      <stop offset="0.262" stop-color="#fffc29"/>
      <stop offset="0.307" stop-color="#ffe019"/>
      <stop offset="0.351" stop-color="#ffcc0d"/>
      <stop offset="0.396" stop-color="#ffc006"/>
      <stop offset="0.441" stop-color="#ffbc04"/>
      <stop offset="0.597" stop-color="#ffb404"/>
      <stop offset="0.654" stop-color="#d48905"/>
      <stop offset="0.737" stop-color="#9b5007"/>
      <stop offset="0.757" stop-color="#9e5306"/>
      <stop offset="0.777" stop-color="#aa5e06"/>
      <stop offset="0.797" stop-color="#bd7106"/>
      <stop offset="0.816" stop-color="#d88b06"/>
      <stop offset="0.823" stop-color="#e39606"/>
      <stop offset="0.919" stop-color="#ffbc04"/>
      <stop offset="1" stop-color="#e99602"/>
    </linearGradient>
  </defs>
  <g id="loyalty_bnr" transform="translate(-1140 -158)" clip-path="url(#clip-path)">
    <g id="Group_75875" data-name="Group 75875" transform="translate(59.333 -1005.998)">
      <path id="Polygon_5" data-name="Polygon 5" d="M250.619,66.651c13.129-27.025,51.632-27.025,64.762,0l45.506,93.667a36,36,0,0,0,27.541,19.942l103.324,14.019c29.917,4.059,41.849,40.925,19.985,61.744l-75.011,71.427a36,36,0,0,0-10.6,32.5l18.484,101.83c5.376,29.617-25.809,52.361-52.366,38.192l-92.3-49.243a36,36,0,0,0-33.891,0l-92.3,49.243c-26.558,14.169-57.742-8.575-52.366-38.192l18.484-101.83a36,36,0,0,0-10.6-32.5L54.264,256.022C32.4,235.2,44.332,198.337,74.249,194.278l103.324-14.019a36,36,0,0,0,27.541-19.942Z" transform="translate(1053.667 1120.999)" fill="#e7f8f6"/>
      <g id="Mask_Group_25609" data-name="Mask Group 25609" transform="translate(1053.82 1120.54)" clip-path="url(#clip-path-2)">
        <path id="Union_54" data-name="Union 54" d="M576.487,573.139V532.106H521.448v41.033h-1.411V532.106H465v41.033h-1.411V532.106H408.548v41.033h-1.411V532.106H352.1v41.033h-1.411V532.106H295.649v41.033h-1.411V532.106H239.2v41.033h-1.411V532.106H182.751v41.033h-1.412V532.106H126.3v41.033h-1.411V532.106H69.851v41.033H68.44V532.106H13.4v41.033H11.99V532.106H0v-1.453H11.99V473.967H0v-1.453H11.99V415.826H0v-1.453H11.99V357.686H0v-1.453H11.99V299.546H0v-1.453H11.99V241.406H0v-1.453H11.99V183.265H0v-1.453H11.99V125.126H0v-1.453H11.99V66.986H0V65.532H11.99V8.846H0V7.392H11.99V0H13.4V7.392H68.44V0h1.411V7.392h55.038V0H126.3V7.392h55.038V0h1.412V7.392h55.038V0H239.2V7.392h55.038V0h1.411V7.392h55.039V0H352.1V7.392h55.038V0h1.411V7.392h55.039V0H465V7.392h55.038V0h1.411V7.392h55.039V0H577.9V7.392h15.156V8.846H577.9V65.532h15.156v1.455H577.9v56.686h15.156v1.453H577.9v56.686h15.156v1.453H577.9v56.687h15.156v1.453H577.9v56.686h15.156v1.453H577.9v56.687h15.156v1.453H577.9v56.686h15.156v1.453H577.9v56.687h15.156v1.453H577.9v56.686h15.156v1.453H577.9v41.033Zm0-42.486V473.967H521.448v56.686Zm-56.45,0V473.967H465v56.686Zm-56.449,0V473.967H408.548v56.686Zm-56.45,0V473.967H352.1v56.686Zm-56.449,0V473.967H295.649v56.686Zm-56.45,0V473.967H239.2v56.686Zm-56.449,0V473.967H182.751v56.686Zm-56.45,0V473.967H126.3v56.686Zm-56.449,0V473.967H69.851v56.686Zm-56.449,0V473.967H13.4v56.686Zm508.047-58.139V415.826H521.448v56.687Zm-56.45,0V415.826H465v56.687Zm-56.449,0V415.826H408.548v56.687Zm-56.45,0V415.826H352.1v56.687Zm-56.449,0V415.826H295.649v56.687Zm-56.45,0V415.826H239.2v56.687Zm-56.449,0V415.826H182.751v56.687Zm-56.45,0V415.826H126.3v56.687Zm-56.449,0V415.826H69.851v56.687Zm-56.449,0V415.826H13.4v56.687Zm508.047-58.141V357.686H521.448v56.686Zm-56.45,0V357.686H465v56.686Zm-56.449,0V357.686H408.548v56.686Zm-56.45,0V357.686H352.1v56.686Zm-56.449,0V357.686H295.649v56.686Zm-56.45,0V357.686H239.2v56.686Zm-56.449,0V357.686H182.751v56.686Zm-56.45,0V357.686H126.3v56.686Zm-56.449,0V357.686H69.851v56.686Zm-56.449,0V357.686H13.4v56.686Zm508.047-58.139V299.546H521.448v56.687Zm-56.45,0V299.546H465v56.687Zm-56.449,0V299.546H408.548v56.687Zm-56.45,0V299.546H352.1v56.687Zm-56.449,0V299.546H295.649v56.687Zm-56.45,0V299.546H239.2v56.687Zm-56.449,0V299.546H182.751v56.687Zm-56.45,0V299.546H126.3v56.687Zm-56.449,0V299.546H69.851v56.687Zm-56.449,0V299.546H13.4v56.687Zm508.047-58.141V241.406H521.448v56.686Zm-56.45,0V241.406H465v56.686Zm-56.449,0V241.406H408.548v56.686Zm-56.45,0V241.406H352.1v56.686Zm-56.449,0V241.406H295.649v56.686Zm-56.45,0V241.406H239.2v56.686Zm-56.449,0V241.406H182.751v56.686Zm-56.45,0V241.406H126.3v56.686Zm-56.449,0V241.406H69.851v56.686Zm-56.449,0V241.406H13.4v56.686Zm508.047-58.139V183.265H521.448v56.687Zm-56.45,0V183.265H465v56.687Zm-56.449,0V183.265H408.548v56.687Zm-56.45,0V183.265H352.1v56.687Zm-56.449,0V183.265H295.649v56.687Zm-56.45,0V183.265H239.2v56.687Zm-56.449,0V183.265H182.751v56.687Zm-56.45,0V183.265H126.3v56.687Zm-56.449,0V183.265H69.851v56.687Zm-56.449,0V183.265H13.4v56.687Zm508.047-58.141V125.126H521.448v56.686Zm-56.45,0V125.126H465v56.686Zm-56.449,0V125.126H408.548v56.686Zm-56.45,0V125.126H352.1v56.686Zm-56.449,0V125.126H295.649v56.686Zm-56.45,0V125.126H239.2v56.686Zm-56.449,0V125.126H182.751v56.686Zm-56.45,0V125.126H126.3v56.686Zm-56.449,0V125.126H69.851v56.686Zm-56.449,0V125.126H13.4v56.686Zm508.047-58.139V66.986H521.448v56.686Zm-56.45,0V66.986H465v56.686Zm-56.449,0V66.986H408.548v56.686Zm-56.45,0V66.986H352.1v56.686Zm-56.449,0V66.986H295.649v56.686Zm-56.45,0V66.986H239.2v56.686Zm-56.449,0V66.986H182.751v56.686Zm-56.45,0V66.986H126.3v56.686Zm-56.449,0V66.986H69.851v56.686Zm-56.449,0V66.986H13.4v56.686ZM576.487,65.532V8.846H521.448V65.532Zm-56.45,0V8.846H465V65.532Zm-56.449,0V8.846H408.548V65.532Zm-56.45,0V8.846H352.1V65.532Zm-56.449,0V8.846H295.649V65.532Zm-56.45,0V8.846H239.2V65.532Zm-56.449,0V8.846H182.751V65.532Zm-56.45,0V8.846H126.3V65.532Zm-56.449,0V8.846H69.851V65.532Zm-56.449,0V8.846H13.4V65.532Z" transform="translate(32.359 0.344)" fill="#007864" opacity="0.09"/>
      </g>
      <g id="Group_75871" data-name="Group 75871" transform="translate(1088.399 1220.082)">
        <path id="Path_88377" data-name="Path 88377" d="M327.157,52.953a2.726,2.726,0,0,0,.283-.013,2.589,2.589,0,0,0,2.086-1.321c2.485-4.251-3.908-18.74-4.647-20.376a.811.811,0,0,0-1.547.236c-.206,1.706-1.926,16.807,1.7,20.546a2.9,2.9,0,0,0,2.122.928m-2.518-18.125c2.385,5.911,4.8,13.714,3.483,15.972a.986.986,0,0,1-.832.522,1.261,1.261,0,0,1-1.088-.429c-2.132-2.2-1.982-10.617-1.563-16.066" transform="translate(-148.156 77.914)" fill="#fff"/>
        <path id="Path_88389" data-name="Path 88389" d="M324.413,56.621a.822.822,0,0,0,.629-.293l5.678-6.855a.814.814,0,0,0-1.254-1.038l-5.678,6.855a.811.811,0,0,0,.625,1.33" transform="translate(-151.808 118.334)" fill="#fff"/>
        <path id="Path_88390" data-name="Path 88390" d="M326.677,54.836a.8.8,0,0,0,.659-.339l4.876-6.769a.811.811,0,1,0-1.317-.948l-4.876,6.769a.811.811,0,0,0,.659,1.287" transform="translate(-160.801 114.385)" fill="#fff"/>
        <path id="Path_88347" data-name="Path 88347" d="M303.774,87.562S348.548,130.38,409.268,115.2,442.4,24,442.4,24s-33.149,18.45-56,22.4c-22.522,3.9-67.209,2.849-67.209,2.849Z" transform="translate(-203.607 62.174)" fill="#b5faee" stroke="#000" stroke-width="1.5"/>
        <path id="Path_88356" data-name="Path 88356" d="M284.814,175.666s2.511-86.621,20.25-129.107c15.836-37.932,79.45-23.589,84.915-9.453s-4.194,144.361-4.194,144.361-66.172,10.338-100.97-5.8" transform="translate(-83.543 58.143)" fill="#b5faee"/>
        <path id="Path_88430" data-name="Path 88430" d="M305.064,46.56c15.836-37.932,79.45-23.589,84.915-9.453s-4.194,144.361-4.194,144.361-66.172,10.338-100.97-5.8c-.13-4.623,3.138-46.871,8.019-79.928" transform="translate(-83.738 58.143)" fill="none" stroke="#000" stroke-width="1.5"/>
        <path id="Path_88357" data-name="Path 88357" d="M294.781,22.377v.555l.372,10.484.26,8.219s-.669,1.906,8.279,1.347c11.991-.792,15.889-6.273,15.889-6.273l.632-19.255-3.639.715Z" transform="translate(-45.257 46.952)" fill="#fff" stroke="#000" stroke-width="1.5"/>
        <g id="Group_75864" data-name="Group 75864" transform="translate(0 91.17)">
          <g id="Rectangle_18309" data-name="Rectangle 18309" transform="translate(0.267 -0.253)" fill="#ffb400" stroke="#000" stroke-width="1.5">
            <rect width="197" height="127" rx="11" stroke="none"/>
            <rect x="0.75" y="0.75" width="195.5" height="125.5" rx="10.25" fill="none"/>
          </g>
          <g id="Rectangle_18310" data-name="Rectangle 18310" transform="translate(0.267 80.747)" fill="#008871" stroke="#000" stroke-width="1.5">
            <rect width="197" height="25" stroke="none"/>
            <rect x="0.75" y="0.75" width="195.5" height="23.5" fill="none"/>
          </g>
          <rect id="Rectangle_18311" data-name="Rectangle 18311" width="6.749" height="60.656" transform="matrix(-0.003, -1, 1, -0.003, 14.531, 57.176)" fill="rgba(255,255,255,0.3)"/>
          <rect id="Rectangle_18312" data-name="Rectangle 18312" width="6.749" height="60.656" transform="matrix(-0.003, -1, 1, -0.003, 124.319, 97.28)" fill="rgba(255,255,255,0.3)"/>
          <rect id="Rectangle_18313" data-name="Rectangle 18313" width="6.749" height="45.298" transform="matrix(-0.003, -1, 1, -0.003, 14.531, 67.983)" fill="rgba(255,255,255,0.3)"/>
        </g>
        <path id="Path_88358" data-name="Path 88358" d="M296.331,22.669l.343,9.476c5.349-.645,15.084-3.014,19.069-11.845a7.676,7.676,0,0,0,.575-1.9l-19.951,4.128Z" transform="translate(-46.518 49.147)"/>
        <path id="Path_88359" data-name="Path 88359" d="M7.542,7.1S-2.839,31.693.757,45.576s15.587,11.788,22.768,9.16A23.778,23.778,0,0,0,34.062,47.5a9.782,9.782,0,0,0,11.2-4.091c4.52-6.529,1.813-14.086-2-15.839s-8.375,1.121-8.375,1.121l3.609-7.141S23.738-14.994,7.542,7.1" transform="translate(247.92 15.612) rotate(14)" fill="#fff" stroke="#000" stroke-width="1.5"/>
        <path id="Path_88360" data-name="Path 88360" d="M1.17,11.8a.76.76,0,0,0,.226-.033.812.812,0,0,0,.552-1.008c-1.334-4.55,1.889-9.45,1.923-9.5a.813.813,0,1,0-1.354-.9C2.368.585-1.155,5.951.392,11.223a.813.813,0,0,0,.778.582" transform="translate(248.506 43.242) rotate(14)"/>
        <path id="Path_88361" data-name="Path 88361" d="M.813,8.725a.806.806,0,0,0,.605-.269l6.356-7.1A.813.813,0,0,0,6.564.27L.208,7.371A.812.812,0,0,0,.813,8.725" transform="translate(274.307 54.72) rotate(14)"/>
        <path id="Path_88362" data-name="Path 88362" d="M5.206,2.331A.812.812,0,0,0,5.336.718L.942.012A.8.8,0,0,0,.011.688a.812.812,0,0,0,.672.931l4.394.7a.884.884,0,0,0,.13.01" transform="translate(275.484 59.643) rotate(14)"/>
        <path id="Path_88363" data-name="Path 88363" d="M.813,4.137a.813.813,0,0,0,.805-.7L1.923.928A.819.819,0,0,0,1.231.01.8.8,0,0,0,.31.7l-.3,2.508A.814.814,0,0,0,.7,4.131c.04,0,.077.007.113.007" transform="translate(247.217 40.213) rotate(14)"/>
        <path id="Path_88364" data-name="Path 88364" d="M.811,3.639a.809.809,0,0,0,.8-.715L1.869.909a.811.811,0,1,0-1.61-.2L.006,2.731a.814.814,0,0,0,.709.9l.1,0" transform="translate(259.387 44.889) rotate(14)"/>
        <path id="Path_88365" data-name="Path 88365" d="M0,0V7.474L6.347.961Z" transform="translate(274.944 48.012) rotate(14)"/>
        <path id="Path_88369" data-name="Path 88369" d="M.812,2.022c.07,0,4.74-.4,4.74-.4A.81.81,0,0,0,6.29.745.807.807,0,0,0,5.415,0L.742.4a.813.813,0,0,0,.07,1.623" transform="translate(247.783 31.759) rotate(14)"/>
        <path id="Path_88370" data-name="Path 88370" d="M5.425,2.446A.813.813,0,0,0,5.568.833L.954.011A.806.806,0,0,0,.013.667a.815.815,0,0,0,.655.945l4.614.825a1.071,1.071,0,0,0,.143.01" transform="translate(260.348 35.923) rotate(14)"/>
        <path id="Path_88372" data-name="Path 88372" d="M43.119,44.459a3.041,3.041,0,0,1-4.347-1.211c-1.829-2.864,2.172-11.326,2.172-11.326a17.463,17.463,0,0,1-9.829-1.7c-4.67-2.5-11.812-2.862-22.124-6.015S-8.185,3.513,19.851.282s33.42,22.408,33.42,22.408a9.813,9.813,0,0,1,8.881,8.449c1.43,8.1-8.046,13.963-8.046,13.963s-5.382-3.157-10.986-.642" transform="translate(243.903 0) rotate(14)"/>
        <path id="Path_88376" data-name="Path 88376" d="M303.7,31.546c6.406,0,14.9-1.334,20.307-7.417a.814.814,0,0,0-1.218-1.081c-8.788,9.9-27.282,6.143-27.461,6.1a.806.806,0,0,0-.965.629.815.815,0,0,0,.629.961,45.555,45.555,0,0,0,8.708.808" transform="translate(-48.135 59.329)"/>
        <path id="Path_88388" data-name="Path 88388" d="M312.363,62.833c17.626,0,19.734-23.45,19.754-23.693a.809.809,0,0,0-.812-.875H299.819a.809.809,0,0,0-.785.6c-.133.486-3.2,11.991,1.883,18.943,2.288,3.133,5.861,4.82,10.614,5.016.279.01.559.013.832.013M330.4,39.889c-.532,4.251-3.642,21.916-18.8,21.3-4.231-.17-7.384-1.633-9.37-4.344-4-5.472-2.312-14.555-1.77-16.96Z" transform="translate(-58.984 95.365)" fill="#008871"/>
        <path id="Path_88386" data-name="Path 88386" d="M323.473,59.035a.792.792,0,0,0,.176-.017l3.013-.665a.811.811,0,0,0,.619-.968.819.819,0,0,0-.968-.619l-3.017.662a.813.813,0,0,0,.176,1.607" transform="translate(-145.081 138.356)"/>
        <path id="Path_88374" data-name="Path 88374" d="M285.029,51.661a.886.886,0,0,0,.186-.02,104.219,104.219,0,0,1,31.13-1.7.8.8,0,0,0,.9-.718.811.811,0,0,0-.718-.895,106.1,106.1,0,0,0-31.686,1.733.813.813,0,0,0,.186,1.6" transform="translate(-7.163 117.559)" fill="#fff"/>
        <path id="Path_88375" data-name="Path 88375" d="M286.842,56.05a.764.764,0,0,0,.256-.04c6.29-2.086,16.817-6,16.688-8.781-.04-.848-.752-1.44-2.112-1.753-7.793-1.8-15.188,8.848-15.5,9.3a.81.81,0,0,0,.669,1.271M299.877,46.9a6.516,6.516,0,0,1,1.427.16,1.882,1.882,0,0,1,.891.353c-.316,1.041-6.553,3.855-13,6.16,2.245-2.608,6.433-6.672,10.677-6.672" transform="translate(0.281 111.661)" fill="#fff"/>
        <path id="Path_88447" data-name="Path 88447" d="M196.676,48.415" transform="translate(77.12 6.109)" fill="none" stroke="#000" stroke-width="1.5"/>
        <path id="Path_88420" data-name="Path 88420" d="M333.515,50.841c-3.649.526,0,4.768,0,4.768s-23.633,4.572-24.325,8.55,5.625,7.853,5.625,7.853-3.127,8.256-2.332,11.289,2.92,17.572,10.667,20.639,39.512-11.775,39.512-11.775l.961-32.357s-26.46-9.493-30.109-8.967" transform="translate(-136.419 124.567)" fill="#fff" stroke="#000" stroke-width="1.5"/>
        <path id="Path_88422" data-name="Path 88422" d="M323.473,59.035a.792.792,0,0,0,.176-.017l3.013-.665a.811.811,0,0,0,.619-.968.819.819,0,0,0-.968-.619l-3.017.662a.813.813,0,0,0,.176,1.607" transform="translate(-145.081 138.356)"/>
        <path id="Path_88423" data-name="Path 88423" d="M272.659,159.337s113.058,28.017,127.234-33.372c15.789-68.357-44.585-100.914-44.585-100.914L333.253,61.579l7.7,40.36-61.959,6.75Z" transform="translate(-53.99 64.624)" fill="#b5faee"/>
        <path id="Path_88425" data-name="Path 88425" d="M286.842,56.05a.764.764,0,0,0,.256-.04c6.29-2.086,16.817-6,16.688-8.781-.04-.848-.752-1.44-2.112-1.753-7.793-1.8-15.188,8.848-15.5,9.3a.81.81,0,0,0,.669,1.271M299.877,46.9a6.516,6.516,0,0,1,1.427.16,1.882,1.882,0,0,1,.891.353c-.316,1.041-6.553,3.855-13,6.16,2.245-2.608,6.433-6.672,10.677-6.672" transform="translate(2.614 110.495)"/>
        <path id="Path_88426" data-name="Path 88426" d="M6477.178,491.2l4.1-30.78s36.679-5.558,64.077-6.476a202.963,202.963,0,0,1-7.636-33.909" transform="translate(-6256.271 -287.649)" fill="none" stroke="#000" stroke-width="1.5"/>
        <path id="Path_88429" data-name="Path 88429" d="M274.064,143.691s-2.461,15.577-.675,15.653c15.043,3.355,113.45,23.1,126.492-33.38C415.67,57.608,355.3,25.051,355.3,25.051" transform="translate(-53.977 64.624)" fill="none" stroke="#000" stroke-width="1.5"/>
      </g>
      <g id="Mask_Group_25610" data-name="Mask Group 25610" transform="translate(1053.82 1120.54)" clip-path="url(#clip-path-3)">
        <g id="Group_75869" data-name="Group 75869" transform="translate(194.565 312.28)">
          <path id="Path_88823" data-name="Path 88823" d="M329.65,73.381s-36.439,81.226-44.488,117.059c-5.861,26.084,7.946,171.4,13.361,172.068s64.558,0,64.558,0l3.2,14.083h69.461s1.8-79.027,0-138.616-8.1-160.1-8.1-160.1L381.773,60.614Z" transform="translate(-283.74 -62.049)"/>
          <path id="Path_88824" data-name="Path 88824" d="M344.237,320.11a.831.831,0,0,0,.8-.938C327.576,208.9,330.454,89.128,330.484,87.931a.809.809,0,0,0-.549-.788l-22.761-7.837a.812.812,0,1,0-.526,1.537l22.2,7.644c-.2,9.313-2.265,124.54,14.589,230.939a.808.808,0,0,0,.8.685" transform="translate(-266.616 -22.015)" fill="#fff"/>
          <path id="Path_88825" data-name="Path 88825" d="M307.492,147.772H372.1a.812.812,0,0,0,0-1.623H307.492a.812.812,0,0,0,0,1.623" transform="translate(-296.422 133.585)" fill="#a5c4f2"/>
          <path id="Path_88826" data-name="Path 88826" d="M359.919,152.895a.812.812,0,0,0,.023-1.623l-75.611-2.159a.812.812,0,1,0-.043,1.623l75.608,2.159Z" transform="translate(-207.119 140.48)" fill="#a5c4f2"/>
          <path id="Path_88827" data-name="Path 88827" d="M304.127,91.024c.456,0,.918-.017,1.39-.053a.8.8,0,0,0,.748-.868.783.783,0,0,0-.865-.752,11.976,11.976,0,0,1-9.5-3c-5.385-5.059-5.332-14.788-5.332-14.885a.813.813,0,0,0-1.626-.02c0,.426-.063,10.527,5.837,16.086a13.156,13.156,0,0,0,9.347,3.493" transform="translate(-170.771 -42.055)" fill="#fff"/>
        </g>
      </g>
      <g id="Group_75872" data-name="Group 75872" transform="translate(1446.133 1501.203) rotate(16)">
        <g id="Group_75617" data-name="Group 75617" transform="translate(0 0)">
          <path id="Path_88572" data-name="Path 88572" d="M89.765,68.249c2.183-13.86-2.318-30.489-13.408-44.62S50.183,1.175,36.2,0H21.609L11.326,7.523c-16,13.936-14.979,42.662,2.621,65.087s45.26,30.245,62.6,18.014l9.076-8.352Z" transform="translate(0 4.672)" fill="#de9d00"/>
          <path id="Path_88573" data-name="Path 88573" d="M76.429,88.428c-16.787,13.174-44.8,5.5-62.567-17.137S-4.7,19.617,12.086,6.444s44.8-5.5,62.568,17.137,18.562,51.672,1.775,64.847" transform="translate(7.398 0)" fill="#ffb400"/>
          <path id="Path_88575" data-name="Path 88575" d="M26.636,8.559l-9.219,7.235L16.108,14.13a14.974,14.974,0,0,0-3.05-3.224,1.672,1.672,0,0,0-2.013.258,1.747,1.747,0,0,0-.706,1.7,5.324,5.324,0,0,0,1.238,2.453q1.856,2.361,3.464,2.624a43.487,43.487,0,0,0,7.859-.23,47.269,47.269,0,0,1,7.568-.223,12.226,12.226,0,0,1,4.887,1.785,19.629,19.629,0,0,1,5.271,4.909q4.211,5.366,4.233,10.281T40.7,43.828L43.664,47.6l-4.243,3.33-3.061-3.9a13.57,13.57,0,0,1-8.888,1.979q-4.873-.529-10.137-7.232l-1.54-1.96,9.224-7.238,1.928,2.457a32.1,32.1,0,0,0,4.23,4.8,1.637,1.637,0,0,0,2.152-.1,1.977,1.977,0,0,0,.854-1.777,4.661,4.661,0,0,0-1.131-2.381A23.846,23.846,0,0,0,28.829,31.1q-1.574-1.113-5.45-.838a82.545,82.545,0,0,1-9.064.272A14.22,14.22,0,0,1,8.7,28.776a17.056,17.056,0,0,1-5.469-4.692Q-.3,19.588.028,15.2T4.575,6.532l-2.515-3.2L6.3,0,8.818,3.2Q13.556.44,17.653,1.3t7.59,5.3q.488.623,1.392,1.959" transform="translate(29.816 21.401)" stroke="#000" stroke-width="1"/>
        </g>
        <path id="Path_88579" data-name="Path 88579" d="M2.059,3.33l2.516,3.2Q.363,10.8.029,15.2t3.2,8.889A17.1,17.1,0,0,0,8.7,28.777a14.227,14.227,0,0,0,5.617,1.754,83.4,83.4,0,0,0,9.063-.272c2.583-.187,4.4.1,5.45.838a23.754,23.754,0,0,1,4.225,4.488,4.656,4.656,0,0,1,1.131,2.379,1.981,1.981,0,0,1-.854,1.777,1.641,1.641,0,0,1-2.153.1,32.17,32.17,0,0,1-4.23-4.8l-1.928-2.457L15.8,39.821l1.537,1.96q5.265,6.706,10.138,7.232a13.566,13.566,0,0,0,8.886-1.978l3.061,3.9L43.664,47.6,40.7,43.829q4.186-4.449,4.157-9.364T40.625,24.183a19.649,19.649,0,0,0-5.272-4.909,12.188,12.188,0,0,0-4.886-1.785,47.261,47.261,0,0,0-7.569.223,43.5,43.5,0,0,1-7.86.23q-1.606-.264-3.463-2.624a5.355,5.355,0,0,1-1.239-2.454,1.75,1.75,0,0,1,.709-1.7,1.673,1.673,0,0,1,2.011-.257,15.01,15.01,0,0,1,3.049,3.226L17.412,15.8,26.634,8.56Q25.728,7.223,25.242,6.6q-3.488-4.444-7.591-5.3T8.817,3.2L6.3,0Z" transform="translate(33.269 18.691)" fill="#fff" stroke="#000" stroke-width="1"/>
      </g>
      <g id="Group_75870" data-name="Group 75870" transform="translate(1436.937 1439.558) rotate(-11)">
        <g id="Group_75588" data-name="Group 75588" transform="translate(2.662 4.916)">
          <g id="Group_75616" data-name="Group 75616" transform="translate(0 0)">
            <path id="Path_88554" data-name="Path 88554" d="M52.984,1.317c-8.7-.007-19.942,4.2-30.306,12.077S5.251,30.975,2.928,39.362L0,46.877l5,6.516C12.2,61.573,30.861,58.3,47.31,45.8S71.989,16.344,66.035,7.213L60.625,0Z" fill="#de9d00"/>
          </g>
        </g>
        <g id="Group_75590" data-name="Group 75590" transform="translate(0.551 0.84)">
          <g id="Group_75589" data-name="Group 75589" transform="translate(0 0)" clip-path="url(#clip-path-5)">
            <rect id="Rectangle_18261" data-name="Rectangle 18261" width="84.967" height="74.315" transform="translate(-17.139 2.901) rotate(-12.756)" fill="url(#linear-gradient)"/>
          </g>
        </g>
        <g id="Group_75592" data-name="Group 75592" transform="translate(0 0)">
          <g id="Group_75615" data-name="Group 75615" transform="translate(0)">
            <path id="Path_88556" data-name="Path 88556" d="M64.6,21.135c-2.952,8.2-9.884,16.879-19.018,23.823-8.117,6.169-17.036,10.287-25.116,11.6-8.205,1.331-14.589-.391-17.977-4.848C-.449,47.848-.8,42.206,1.5,35.816c2.952-8.2,9.884-16.88,19.018-23.822C37.376-.817,56.708-3.845,63.617,5.243c2.933,3.859,3.28,9.5.979,15.892" fill="#ffb400"/>
            <path id="Path_88558" data-name="Path 88558" d="M7.851,13.786l3.638,4.788-1.224.932a15.285,15.285,0,0,0-2.435,2.113.878.878,0,0,0,.959,1.43,5.277,5.277,0,0,0,1.729-.967,5.945,5.945,0,0,0,2.093-2.3,25.086,25.086,0,0,0,.743-4.639,26.971,26.971,0,0,1,.715-4.47A9.989,9.989,0,0,1,15.779,7.6a19.738,19.738,0,0,1,3.776-3.59A16.3,16.3,0,0,1,26.694.532a6.679,6.679,0,0,1,5.592,1.584L35.066,0l1.249.532L36.742,2.2,33.868,4.388a6.409,6.409,0,0,1,.273,5.087q-.9,2.941-5.834,6.695l-1.915,1.56-1.069-1.346-2.1-3.9,1.81-1.376A32.846,32.846,0,0,0,28.625,8.14q.611-.7.177-1.266a.959.959,0,0,0-1.053-.339,4.542,4.542,0,0,0-1.669.894,24.448,24.448,0,0,0-3.387,2.929,6.122,6.122,0,0,0-1.162,3.313,47.216,47.216,0,0,1-.853,5.351,11.211,11.211,0,0,1-1.774,3.5,16.982,16.982,0,0,1-3.658,3.687,11.992,11.992,0,0,1-6.118,2.736,6.56,6.56,0,0,1-5.094-1.881L1.676,28.857l-1.5-.864L0,26.653l2.36-1.793A5.946,5.946,0,0,1,2.133,19.8a12.63,12.63,0,0,1,4.292-5q.458-.347,1.427-1.01" transform="translate(14.429 13.715)"/>
          </g>
        </g>
        <path id="Path_88580" data-name="Path 88580" d="M32.286,2.115A6.685,6.685,0,0,0,26.694.531a16.323,16.323,0,0,0-7.138,3.48A19.76,19.76,0,0,0,15.779,7.6a9.956,9.956,0,0,0-1.71,3.067,26.96,26.96,0,0,0-.716,4.47,25.113,25.113,0,0,1-.743,4.641,5.981,5.981,0,0,1-2.093,2.3,5.3,5.3,0,0,1-1.729.966.877.877,0,0,1-.959-1.428A15.251,15.251,0,0,1,10.264,19.5l1.226-.931L7.851,13.786q-.967.661-1.427,1.01a12.64,12.64,0,0,0-4.292,5A5.951,5.951,0,0,0,2.36,24.86L0,26.653l1.675,2.2,2.36-1.793a6.555,6.555,0,0,0,5.092,1.88,11.98,11.98,0,0,0,6.118-2.735A17.006,17.006,0,0,0,18.9,22.521a11.16,11.16,0,0,0,1.772-3.5,47.081,47.081,0,0,0,.854-5.351,6.13,6.13,0,0,1,1.161-3.313A24.417,24.417,0,0,1,26.079,7.43a4.576,4.576,0,0,1,1.67-.9.96.96,0,0,1,1.053.339c.289.379.228.8-.177,1.266A32.924,32.924,0,0,1,25.033,11.1l-1.809,1.375,3.639,4.788,1.443-1.1q4.941-3.755,5.836-6.7a6.4,6.4,0,0,0-.273-5.085L36.741,2.2,35.066,0Z" transform="translate(13.065 11.922)" fill="#fff" stroke="#000" stroke-width="0.5"/>
      </g>
      <g id="Group_75873" data-name="Group 75873" transform="translate(1135.058 1471.54) rotate(-28)">
        <path id="Path_88441" data-name="Path 88441" d="M0,0S16.466,44.433,74.412,44.76" transform="translate(0 0)" fill="none" stroke="#008871" stroke-linecap="round" stroke-width="5"/>
        <path id="Path_88442" data-name="Path 88442" d="M0,0,15.679,14.832,0,29.077" transform="matrix(0.995, 0.105, -0.105, 0.995, 61.222, 28.788)" fill="none" stroke="#008871" stroke-linecap="round" stroke-linejoin="round" stroke-width="5"/>
      </g>
      <g id="Group_75874" data-name="Group 75874" transform="translate(1226.439 1272.193) rotate(150)">
        <path id="Path_88441-2" data-name="Path 88441" d="M0,0S16.467,44.433,74.414,44.76" transform="translate(0 0)" fill="none" stroke="#ffb400" stroke-linecap="round" stroke-width="5"/>
        <path id="Path_88442-2" data-name="Path 88442" d="M0,0,16.956,16.04,0,31.446" transform="matrix(0.995, 0.105, -0.105, 0.995, 60.075, 27.476)" fill="none" stroke="#ffb400" stroke-linecap="round" stroke-linejoin="round" stroke-width="5"/>
      </g>
      <path id="Path_89193" data-name="Path 89193" d="M1307.48,1441.044s63.924,17.433,98.7.894c.373.344-23.249-23.509-23.249-23.509l-35.081-10.591-22.3,6.526Z" fill="#b5faee"/>
    </g>
  </g>
</svg>
