<svg id="_0252_money_transfer_2" xmlns="http://www.w3.org/2000/svg" xmlns:xlink="http://www.w3.org/1999/xlink" viewBox="0 0 500 500" data-imageid="money-transfer-2-97" imageName="Money Transfer 2" class="illustrations_image" style="width: 166px;"><defs><style>.cls-1_money-transfer-2-97{fill:url(#linear-gradient);}.cls-1_money-transfer-2-97,.cls-2_money-transfer-2-97,.cls-3_money-transfer-2-97,.cls-4_money-transfer-2-97,.cls-5_money-transfer-2-97,.cls-6_money-transfer-2-97,.cls-7_money-transfer-2-97,.cls-8_money-transfer-2-97,.cls-9_money-transfer-2-97,.cls-10_money-transfer-2-97,.cls-11_money-transfer-2-97,.cls-12_money-transfer-2-97,.cls-13_money-transfer-2-97,.cls-14_money-transfer-2-97,.cls-15_money-transfer-2-97,.cls-16_money-transfer-2-97,.cls-17_money-transfer-2-97,.cls-18_money-transfer-2-97,.cls-19_money-transfer-2-97,.cls-20_money-transfer-2-97{stroke-width:0px;}.cls-2_money-transfer-2-97{fill:url(#linear-gradient-11-money-transfer-2-97);}.cls-3_money-transfer-2-97{fill:url(#linear-gradient-12-money-transfer-2-97);}.cls-4_money-transfer-2-97{fill:url(#linear-gradient-13-money-transfer-2-97);}.cls-5_money-transfer-2-97{fill:url(#linear-gradient-10-money-transfer-2-97);}.cls-6_money-transfer-2-97{fill:url(#linear-gradient-15-money-transfer-2-97);}.cls-7_money-transfer-2-97{fill:url(#linear-gradient-14-money-transfer-2-97);}.cls-8_money-transfer-2-97{fill:url(#linear-gradient-7-money-transfer-2-97);}.cls-8_money-transfer-2-97,.cls-9_money-transfer-2-97{opacity:.48;}.cls-8_money-transfer-2-97,.cls-9_money-transfer-2-97,.cls-10_money-transfer-2-97,.cls-17_money-transfer-2-97{isolation:isolate;}.cls-9_money-transfer-2-97{fill:url(#linear-gradient-8-money-transfer-2-97);}.cls-10_money-transfer-2-97{opacity:.16;}.cls-10_money-transfer-2-97,.cls-17_money-transfer-2-97,.cls-20_money-transfer-2-97{fill:#68e1fd;}.cls-11_money-transfer-2-97{fill:url(#linear-gradient-4-money-transfer-2-97);}.cls-12_money-transfer-2-97{fill:url(#linear-gradient-2-money-transfer-2-97);}.cls-13_money-transfer-2-97{fill:url(#linear-gradient-3-money-transfer-2-97);}.cls-14_money-transfer-2-97{fill:url(#linear-gradient-9-money-transfer-2-97);}.cls-15_money-transfer-2-97{fill:url(#linear-gradient-5-money-transfer-2-97);}.cls-16_money-transfer-2-97{fill:url(#linear-gradient-6-money-transfer-2-97);}.cls-17_money-transfer-2-97{opacity:.24;}.cls-18_money-transfer-2-97{fill:#fff;}.cls-19_money-transfer-2-97{fill:#ffaa71;}</style><linearGradient id="linear-gradient-money-transfer-2-97" x1="772.75" y1="2736.94" x2="780.84" y2="2371.43" gradientTransform="translate(-471 2941.54) scale(1 -1)" gradientUnits="userSpaceOnUse"><stop offset="0" stop-color="#231f20" stop-opacity="0"/><stop offset="1" stop-color="#231f20"/></linearGradient><linearGradient id="linear-gradient-2-money-transfer-2-97" x1="832.25" y1="2731.01" x2="1141.09" y2="2731.01" gradientTransform="translate(-531.46 2933.55) scale(1 -1)" gradientUnits="userSpaceOnUse"><stop offset="0" stop-color="#fff" stop-opacity="0"/><stop offset=".14" stop-color="#fff" stop-opacity=".22"/><stop offset=".3" stop-color="#fff" stop-opacity=".45"/><stop offset=".45" stop-color="#fff" stop-opacity=".65"/><stop offset=".6" stop-color="#fff" stop-opacity=".8"/><stop offset=".73" stop-color="#fff" stop-opacity=".91"/><stop offset=".85" stop-color="#fff" stop-opacity=".98"/><stop offset=".94" stop-color="#fff"/></linearGradient><linearGradient id="linear-gradient-3-money-transfer-2-97" x1="763.64" y1="2754.17" x2="797.2" y2="2754.17" gradientTransform="translate(-471 2941.54) scale(1 -1)" xlink:href="#linear-gradient-2-money-transfer-2-97"/><linearGradient id="linear-gradient-4-money-transfer-2-97" x1="763.64" y1="2716.09" x2="797.2" y2="2716.09" gradientTransform="translate(-471 2941.54) scale(1 -1)" xlink:href="#linear-gradient-2-money-transfer-2-97"/><linearGradient id="linear-gradient-5-money-transfer-2-97" x1="906.64" y1="2775.7" x2="899.27" y2="2597.84" gradientTransform="translate(-531.46 2933.55) scale(1 -1)" xlink:href="#linear-gradient-money-transfer-2-97"/><linearGradient id="linear-gradient-6-money-transfer-2-97" x1="915.17" y1="2794.33" x2="907.81" y2="2616.48" gradientTransform="translate(-531.46 2933.55) scale(1 -1)" xlink:href="#linear-gradient-money-transfer-2-97"/><linearGradient id="linear-gradient-7-money-transfer-2-97" x1="772.01" y1="2756.87" x2="805.57" y2="2756.87" gradientTransform="translate(-471 2941.54) scale(1 -1)" xlink:href="#linear-gradient-2-money-transfer-2-97"/><linearGradient id="linear-gradient-8-money-transfer-2-97" x1="772.01" y1="2734.56" x2="805.57" y2="2734.56" gradientTransform="translate(-471 2941.54) scale(1 -1)" xlink:href="#linear-gradient-2-money-transfer-2-97"/><linearGradient id="linear-gradient-9-money-transfer-2-97" x1="719.45" y1="2682.96" x2="821.34" y2="2737.98" gradientTransform="translate(-531.46 2933.55) scale(1 -1)" xlink:href="#linear-gradient-money-transfer-2-97"/><linearGradient id="linear-gradient-10-money-transfer-2-97" x1="723.22" y1="2705.77" x2="724.73" y2="2666.83" xlink:href="#linear-gradient-money-transfer-2-97"/><linearGradient id="linear-gradient-11-money-transfer-2-97" x1="779.32" y1="2709.63" x2="926.53" y2="2677.48" gradientTransform="translate(-531.46 2933.55) scale(1 -1)" xlink:href="#linear-gradient-money-transfer-2-97"/><linearGradient id="linear-gradient-12-money-transfer-2-97" x1="845.92" y1="2577.06" x2="930.53" y2="2477.86" gradientTransform="translate(-531.46 2933.55) scale(1 -1)" xlink:href="#linear-gradient-money-transfer-2-97"/><linearGradient id="linear-gradient-13-money-transfer-2-97" x1="625.34" y1="2648.78" x2="684.12" y2="2505.09" gradientTransform="translate(-531.46 2933.55) scale(1 -1)" xlink:href="#linear-gradient-money-transfer-2-97"/><linearGradient id="linear-gradient-14-money-transfer-2-97" x1="886.22" y1="2518.02" x2="784.41" y2="2454.74" gradientTransform="translate(-531.46 2933.55) scale(1 -1)" xlink:href="#linear-gradient-money-transfer-2-97"/><linearGradient id="linear-gradient-15-money-transfer-2-97" x1="807.4" y1="2595.57" x2="844.24" y2="2720.16" gradientTransform="translate(-531.46 2933.55) scale(1 -1)" xlink:href="#linear-gradient-money-transfer-2-97"/></defs><path id="background_money-transfer-2-97" class="cls-17_money-transfer-2-97 targetColor" d="M471.3,308.15c1.02,47.06-37.71,84.25-73.51,114.94-.12.13-.25.24-.39.35l-48.42,40.88c-6.08,5.29-12.82,9.76-20.06,13.3-31.83,15.7-71.83,14.27-108.45,11.82-29.48-2.05-62.98-6.21-80.01-30.41-5.52-7.92-8.71-17.34-14.7-24.91-8.59-10.92-21.95-16.73-34.04-23.53-16.31-9.27-30.69-21.56-42.4-36.22-22.45-28.11-33.86-63.87-22.62-97.19.17-.56.39-1.14.6-1.71,6.85-18.83,20.15-34.59,29.52-52.32,30.15-56.81,21.33-134.18,68.8-177.68,23.01-21.08,54.95-29.26,85.86-33.35,32.26-4.28,65.48-4.82,96.99,3.14,64.63,16.2,117.76,70.43,134.24,134.77,1.64,6.26,2.91,12.61,3.79,19.02,3,21.8,2.14,44.15,6.67,65.69,1.25,5.82,2.85,11.53,4.64,17.24,5.78,18.56,13.1,36.83,13.48,56.17Z" style="fill: rgb(104, 225, 253);"/><g id="money_money-transfer-2-97"><polygon class="cls-1_money-transfer-2-97" points="459.19 255.05 143.12 255.05 143.12 268.6 463.21 268.6 459.19 255.05"/><path class="cls-12_money-transfer-2-97" d="M457.82,251.98l-.89,3.07H148.98v-105.02h293.74c1.64,6.26,2.91,12.61,3.79,19.02,3,21.8,2.14,44.15,6.67,65.69,1.25,5.82,2.85,11.53,4.64,17.24Z"/><rect class="cls-13_money-transfer-2-97" x="287.39" y="183.87" width="33.56" height="7"/><rect class="cls-11_money-transfer-2-97" x="287.39" y="213.28" width="33.56" height="24.34"/><rect class="cls-20_money-transfer-2-97 targetColor" x="320.77" y="183.76" width="104.06" height="54.36" style="fill: rgb(104, 225, 253);"/><path class="cls-15_money-transfer-2-97" d="M418.61,200.62v21.77c-4.63.11-8.37,4.85-8.37,10.7-.02.25-.02.5,0,.75h-72.68c.02-.25.02-.5,0-.75,0-5.9-3.79-10.7-8.45-10.7-.61.01-1.22.1-1.81.27v-22.29c.59.17,1.2.26,1.81.27,4.67,0,8.41-4.74,8.45-10.65h72.64c.08,5.84,3.83,10.53,8.41,10.64Z"/><rect class="cls-20_money-transfer-2-97 targetColor" x="329.31" y="165.12" width="104.06" height="54.36" style="fill: rgb(104, 225, 253);"/><path class="cls-16_money-transfer-2-97" d="M427.15,181.95v21.78c-4.62.1-8.37,4.84-8.37,10.7,0,.25,0,.5.05.75h-72.72c.02-.25.02-.5,0-.75,0-5.91-3.79-10.7-8.45-10.7-.61,0-1.22.09-1.81.27v-22.28c.59.17,1.2.26,1.81.27,4.67,0,8.41-4.74,8.45-10.65h72.64c.1,5.86,3.82,10.55,8.4,10.62Z"/><path class="cls-20_money-transfer-2-97 targetColor" d="M380.59,206.08v-3.6c-1.93,0-3.82-.56-5.46-1.58l.85-2.39c1.52.99,3.3,1.52,5.12,1.53,2.54,0,4.26-1.46,4.26-3.5s-1.39-3.18-4.04-4.25c-3.64-1.43-5.89-3.07-5.89-6.14s2.11-5.22,5.39-5.76v-3.6h2.24v3.47c1.63,0,3.23.44,4.64,1.25l-.9,2.35c-1.36-.81-2.91-1.23-4.49-1.22-2.75,0-3.8,1.65-3.8,3.07,0,1.85,1.33,2.78,4.43,4.09,3.68,1.49,5.55,3.36,5.55,6.54,0,2.81-1.96,5.46-5.65,6.07v3.71l-2.24-.05Z" style="fill: rgb(104, 225, 253);"/><rect class="cls-8_money-transfer-2-97" x="295.77" y="165.14" width="33.56" height="39.06"/><rect class="cls-9_money-transfer-2-97" x="295.77" y="193.75" width="33.56" height="26.44"/></g><g id="phone_money-transfer-2-97"><path class="cls-19_money-transfer-2-97" d="M178.12,215.71c3.28-7.04,5.37-14.62,9.04-21.48,7.26-13.55,20.46-23.66,25.48-38.19,6.05,2.42,8.07,10.13,7.41,16.61s-3.18,12.78-2.87,19.29c17.14-14.12,38.79-21.6,60.99-21.07,5.34.15,11.12,1.02,14.88,4.79,2.62,2.65,3.83,6.35,4.94,9.9,2.86,9.07,5.76,18.63,3.88,27.95-.58,2.89-1.62,5.75-1.36,8.68.37,4,3.07,8.1,1.39,11.74-.63,1.35-1.82,2.4-2.31,3.82-.9,2.61.86,5.33,1.23,8.06.76,5.49-4.09,10.11-8.91,12.83-14.32,8.06-31.33,9.57-46.84,15.02-49.93,17.54-68.85,7.09-69.43,5.3-3.92-12.05-11.98-27.2-12.85-39.8-.59-8.58,11.64-15.53,15.34-23.45Z"/><path class="cls-14_money-transfer-2-97" d="M204.05,253.77c-2.46,4.01,3.26,8.77,5.73,12.77,1.24,2.05,2.59,4.09,4.72,5.18,1.88.93,4.09.86,6.19.78,4.22-.18,8.57-.4,12.33-2.33,5.8-2.98,8.93-9.34,11.36-15.4,7.16-17.84,11.5-37.85,5.63-56.2-1.69-5.28-4.63-10.7-9.79-12.74-5-1.96-10.63-.19-15.57,1.91-2.86,1.23-8.34,2.69-9.93,5.56-1.42,2.54,6.12,33.11-10.65,60.47Z"/><path class="cls-20_money-transfer-2-97 targetColor" d="M179.79,296.23c-.72,1.16-1.76,2.08-3,2.64-22.19,13.21-85.46,42.36-105.15,59.02-7.04,6-14.1,12.28-22.27,16.45-2.05-2.56-4.01-5.2-5.88-7.92-2.81-4.07-.07-.11-.11-.14-18.42-26.69-26.84-58.92-16.63-89.11,6.67-.63,20.01-10.23,25.16-12.62,18.91-8.71,80.57-30.12,100.56-36.04,1.71-.53,3.67-1.02,5.31-.25,1.26.81,2.26,1.96,2.9,3.31,8.42,14.78,14.33,30.86,17.48,47.57.86,4.39,1.49,8.85,1.96,13.3.25,1.27.13,2.58-.33,3.79Z" style="fill: rgb(104, 225, 253);"/><rect class="cls-20_money-transfer-2-97 targetColor" x="214.96" y="138.14" width="79.21" height="143.27" rx="10.8" ry="10.8" style="fill: rgb(104, 225, 253);"/><rect class="cls-18_money-transfer-2-97" x="218.95" y="147.19" width="71.21" height="119.43"/><circle class="cls-10_money-transfer-2-97 targetColor" cx="253.1" cy="179.81" r="23.23" style="fill: rgb(104, 225, 253);"/><rect class="cls-20_money-transfer-2-97 targetColor" x="227.5" y="233.93" width="49.92" height="15.92" rx="3.72" ry="3.72" style="fill: rgb(104, 225, 253);"/><path class="cls-18_money-transfer-2-97" d="M234.77,243.83c0,.34,0,.68.05,1.02h-1.45c.04-.34.06-.68.05-1.02v-3.33h-1.79v-1.26c.34.02.68.02,1.02,0h2.9c.34.02.68.02,1.02,0v1.26c-.34-.02-.68-.02-1.02,0h-.75l-.03,3.33Z"/><path class="cls-18_money-transfer-2-97" d="M240.38,244.83c-.08-.35-.19-.69-.33-1.02-.2-.58-.29-.73-.45-.87-.14-.13-.32-.19-.51-.18h-.68v1.08c0,.34,0,.68.05,1.02h-1.42c.05-.34.07-.68.06-1.02v-3.57c0-.33-.02-.65-.06-.97h2.74c1.02,0,1.69.55,1.69,1.5.03.4-.11.79-.39,1.08-.18.15-.4.26-.62.33.34.1.49.26.7.73.1.2.19.43.49,1.15.07.18.15.35.32.7l-1.59.05ZM239.44,241.63c.32.03.6-.21.63-.53,0-.03,0-.06,0-.09,0-.37-.21-.56-.62-.56h-1.02v1.18h1.01Z"/><path class="cls-18_money-transfer-2-97" d="M246.21,244.83c-.04-.24-.09-.47-.15-.71l-.18-.56h-1.88l-.17.56c-.08.23-.13.47-.16.71h-1.54c.13-.26.23-.52.32-.8l1.42-3.98c.1-.23.17-.46.21-.71h1.72c.06.24.14.48.23.71l1.43,3.98c.12.35.24.61.32.8h-1.54ZM244.92,240.47l-.61,1.97h1.25l-.63-1.97Z"/><path class="cls-18_money-transfer-2-97" d="M251.37,242.03c.17.25.33.52.47.79v-2.48c0-.34-.01-.68-.06-1.02h1.41c-.04.34-.06.68-.05,1.02v3.5c0,.34.01.68.05,1.02h-1.45c-.14-.29-.31-.57-.49-.84l-1.22-1.84c-.18-.26-.34-.53-.48-.81.04.34.06.68.05,1.02v1.48c-.02.34-.02.68,0,1.02h-1.4c.03-.34.03-.68,0-1.02v-3.47c.02-.34.02-.68,0-1.02h1.43c.12.29.28.56.46.82l1.28,1.82Z"/><path class="cls-18_money-transfer-2-97" d="M255.16,243.04c0,.18.06.35.16.49.2.22.48.34.78.32.5,0,.81-.23.81-.6,0-.19-.1-.38-.28-.46-.33-.12-.67-.21-1.02-.27-.36-.06-.71-.19-1.02-.38-.41-.29-.65-.77-.63-1.27,0-1.02.82-1.66,2.12-1.66.7-.06,1.38.22,1.83.75.17.24.28.51.33.8l-1.39.15c-.08-.43-.32-.61-.82-.61s-.71.23-.71.52c0,.19.13.36.32.42.29.11.6.19.91.23.36.06.71.19,1.02.37.47.28.75.8.72,1.35.02.45-.15.89-.46,1.22-.49.4-1.11.6-1.74.55-.51.02-1.02-.09-1.47-.32-.33-.19-.58-.49-.71-.85-.08-.2-.13-.4-.15-.61l1.41-.13Z"/><path class="cls-18_money-transfer-2-97" d="M260.39,243.68c-.01.38,0,.77.05,1.15h-1.42c.05-.37.08-.75.06-1.13v-3.44c.02-.32.02-.64,0-.96h2.87c.37.03.74.03,1.1,0v1.26c-.37-.04-.74-.06-1.1-.05h-1.51v1.08h1.24c.34.02.68.02,1.02,0v1.23c-.34-.04-.68-.05-1.02-.05h-1.24l-.05.91Z"/><path class="cls-18_money-transfer-2-97" d="M267.7,244.88c-.36-.03-.72-.03-1.08,0h-3.02c.03-.32.03-.64,0-.96v-3.65c.02-.32.02-.64,0-.96h3.08c.34.02.68.02,1.02,0v1.24c-.34-.02-.68-.02-1.02,0h-1.72v.97h2.45v1.22c-.34-.04-.68-.05-1.02-.05h-1.42v1.12h1.7c.36.02.72.02,1.07,0l-.03,1.08Z"/><path class="cls-18_money-transfer-2-97" d="M271.71,244.83c-.08-.35-.19-.69-.32-1.02-.21-.58-.3-.73-.46-.87-.14-.13-.32-.19-.51-.18h-.68v1.08c0,.34,0,.68.05,1.02h-1.42c.05-.34.07-.68.06-1.02v-3.57c0-.33-.02-.65-.06-.97h2.73c1.07,0,1.69.55,1.69,1.5.03.4-.11.79-.39,1.08-.18.15-.39.27-.62.33.34.1.49.26.7.73.1.2.19.43.49,1.15.07.18.15.35.32.7l-1.58.05ZM270.78,241.63c.32.03.59-.2.62-.52,0-.03,0-.06,0-.1,0-.37-.21-.56-.62-.56h-1.02v1.18h1.02Z"/><rect class="cls-5_money-transfer-2-97" x="227.5" y="233.93" width="49.92" height="15.92" rx="3.72" ry="3.72"/><path class="cls-2_money-transfer-2-97" d="M276.81,217.59c.8,1.24,2.12,2.15,2.57,3.55.81,2.55-1.64,4.91-2.25,7.52-.95,4.09,2.66,7.95,2.29,12.08-.27,3.14-2.79,6.05-2.05,9.1-3.07-4.48-10.79-2.57-13.51,2.15s-1.94,10.58-1.02,15.94c1.02,5.61,2.85,12.08,8.18,14.06,4.02,1.47,8.43-.28,12.35-2-1.92-7.02-3.66-14.08-5.24-21.19,4.74-.06,9.43,1.08,13.61,3.33,1.7-5.33,1.72-11.03,1.73-16.61l.05-38.33v-19.79c0-3.95,2.45-4.24-.46-6.7-3.76,6.21-15.3,2.94-15.88,10.3-.4,4.96,3.07,8.59,1.83,13.78-.85,4.04-4.88,8.61-2.2,12.82Z"/><path class="cls-19_money-transfer-2-97" d="M362.47,387.76c-.48.61-1.09,1.11-1.78,1.46-6.21,3.63-12.85,7.42-20.06,7.39-10.59-.07-12.12,8.85-19.34,1.1-9.52-10.23-28.37-31.34-37.18-42.22-7.5-9.21-10.1-18.48-10.89-30.4-.29-3.89-.53-7.96.93-11.6.78-2.05,4.78-10.38,5.71-12.42.21-.48.4-.97.56-1.46,1.61-4.75.9-9.88-.85-14.8h0c-1.09-3-2.46-5.89-4.09-8.63-4.46-7.6-10-15.09-10.64-23.84-.14-2.24.07-4.68,1.5-6.46,2.14-2.71,6.38-2.85,9.45-1.25s5.21,4.46,7.21,7.28c5.52,7.95,10.7,16.12,15.45,24.55,2.6-3.47,7.42-4.75,11.63-3.82s7.82,3.7,10.49,7.1c1.75,2.28,3.28,4.88,5.82,6.2,2.05,1.07,4.42,1.15,6.6,1.82,7.92,2.36,11.42,11.32,15.13,18.7,2.75,5.49,6.14,10.7,8.18,16.52,1.89,5.49,2.42,11.39,2.67,17.2.64,14.53-.36,29.33,3.5,43.36.37,1.38.77,3.01-.02,4.2Z"/><path class="cls-3_money-transfer-2-97" d="M302.59,376.74c3.97,3.95,12.59,14.25,16.57,18.2,1.79,1.79,3.69,3.64,6.14,4.34,2.05.57-.46-6.07,1.62-6.41,10.05-1.68,26.35-4.43,35.71-8.47l-1.63-7.53c-3.17-1.69-16.6.93-20.46,1.13-6.47.32-12.95.36-19.44.13-3.34-.11-16.15.95-18.51-1.38Z"/><path class="cls-20_money-transfer-2-97 targetColor" d="M397.79,423.09c-.12.13-.25.24-.39.35l-44.29,37.33-4.09,3.5c-6.08,5.29-12.82,9.76-20.06,13.3-11.02-28.19-17.87-81.47-17.87-81.47l5.89-1.75,53.52-15.74,27.3,44.47Z" style="fill: rgb(104, 225, 253);"/><path class="cls-19_money-transfer-2-97" d="M223.5,180.13c1.95-5.47,1.78-11.52.46-17.18-.87-3.75-2.31-7.52-5.05-10.23-.64-.77-1.56-1.25-2.56-1.36-1.87,0-2.97,2.05-3.6,3.81-2.66,7.37-5.07,14.83-7.24,22.37-1.18,3.48-1.82,7.11-1.88,10.78.18,6.28,3.64,11.16,9.29,6.21,4.39-3.87,8.58-8.81,10.59-14.4Z"/><path class="cls-19_money-transfer-2-97" d="M284.02,177.14c-3.29,1.19-6.14,4.28-6.01,7.79.11,2.86,2.17,5.38,4.64,6.82,2.57,1.3,5.33,2.17,8.18,2.57-5.03.78-9.37,3.93-11.66,8.47-1.61,3.22-1.86,7.52.64,10.12.91.89,2,1.59,3.19,2.05,2.04.85,4.21,1.35,6.41,1.46-4.94-.24-9.79,3.87-10.05,8.8-.26,4.93,4.53,9.61,9.43,8.93-3.72-.6-7.52,2.24-8.45,5.89-.78,3.78.67,7.67,3.73,10.03,3.08,2.24,6.95,3.14,10.7,2.48,1.87-.29,3.85-1.02,4.85-2.61s.76-3.63.54-5.49c-2.41-20.84,5.87-41.7.68-62.24-.69-2.68-5.35-4.81-7.98-5.57-2.95-.68-6.02-.5-8.87.51Z"/><path class="cls-4_money-transfer-2-97" d="M179.79,296.23c-.72,1.16-1.76,2.08-3,2.64-22.19,13.21-85.46,42.36-105.15,59.02-7.04,6-14.1,12.28-22.27,16.45-2.2-2.45-4.17-5.1-5.88-7.92,0,0-.07-.11-.11-.14-4.18-6.9-8.01-14.01-11.46-21.3,22.63,2.5,143.7-66.02,143.7-66.02.85-.08,1.7-.03,2.54.14.86,4.39,1.49,8.85,1.96,13.3.26,1.28.14,2.61-.33,3.83Z"/><path class="cls-7_money-transfer-2-97" d="M353.12,460.77l-4.09,3.5c-6.08,5.29-12.82,9.76-20.06,13.3-11.02-28.19-17.87-81.47-17.87-81.47l5.89-1.75c2.48-.54,4.99-.95,7.52-1.21,4.43,9.81,8.82,19.62,12.35,29.83,2.11,6.14,3.93,12.34,6.28,18.42,2.35,6.08,5.75,10.85,9.03,16.37.54.92.86,1.95.95,3.01Z"/><path class="cls-6_money-transfer-2-97" d="M292.2,322.89c.09.89-.15,1.78-.68,2.5-1.18,1.21-3.17.32-4.56-.64-3.25-2.18-6.71-4.72-7.5-8.53-.24-1.84-.15-3.71.26-5.52.46-3.07.75-6.25.92-9.42,0-.56-.07-1.11-.21-1.65,1.61-4.75.9-9.88-.85-14.8,3.89,7.56,8.24,18.95,9.06,21.01,2.22,5.42,3.43,11.21,3.56,17.06Z"/><polygon class="cls-20_money-transfer-2-97 targetColor" points="245.3 216.19 257.16 216.19 254.98 213.03 257.68 213.03 261.95 218.25 245.56 218.25 245.3 216.19" style="fill: rgb(104, 225, 253);"/><polygon class="cls-20_money-transfer-2-97 targetColor" points="261.95 221.97 250.1 221.97 252.28 225.13 249.58 225.13 245.3 219.92 261.69 219.92 261.95 221.97" style="fill: rgb(104, 225, 253);"/><path class="cls-20_money-transfer-2-97 targetColor" d="M252.38,194.74v-3.58c-1.93,0-3.83-.55-5.46-1.58l.86-2.38c1.52.99,3.3,1.52,5.12,1.53,2.54,0,4.26-1.47,4.26-3.5s-1.39-3.18-4.09-4.26c-3.64-1.43-5.89-3.07-5.89-6.14s2.11-5.22,5.39-5.75v-3.61h2.22v3.47c1.63.01,3.23.44,4.64,1.25l-.9,2.36c-1.36-.81-2.91-1.23-4.49-1.22-2.75,0-3.79,1.65-3.79,3.07,0,1.86,1.32,2.78,4.42,4.09,3.68,1.5,5.55,3.36,5.55,6.54,0,2.82-1.96,5.46-5.65,6.07v3.71l-2.18-.08Z" style="fill: rgb(104, 225, 253);"/></g></svg>