<svg id="_0269_order_confirmed" xmlns="http://www.w3.org/2000/svg" viewBox="0 0 500 500" data-imageid="order-confirmed-62" imageName="Order Confirmed" class="illustrations_image" style="width: 166px;"><defs><style>.cls-1_order-confirmed-62{fill:#fff;}.cls-2_order-confirmed-62{fill:#f4a28c;}.cls-3_order-confirmed-62{fill:#ce8172;}.cls-4_order-confirmed-62{fill:#e6e6e6;}.cls-5_order-confirmed-62{opacity:.09;}.cls-5_order-confirmed-62,.cls-6_order-confirmed-62{fill:none;}.cls-6_order-confirmed-62{opacity:.31;}.cls-7_order-confirmed-62{fill:#24285b;}.cls-8_order-confirmed-62{fill:#000001;}.cls-9_order-confirmed-62{fill:#ffd200;}.cls-10_order-confirmed-62{fill:#68e1fd;}</style></defs><g id="screen_order-confirmed-62"><rect class="cls-4_order-confirmed-62" x="160.22" y="24.17" width="306.21" height="378.64"/><rect class="cls-9_order-confirmed-62" x="241.2" y="301.65" width="143.35" height="53.86"/><g class="cls-5_order-confirmed-62"><path class="cls-8_order-confirmed-62" d="m171.82,149.97s30.82,4.63,25.33,25.7c-5.5,21.06-20.92,34.25-20.92,34.25v47.31l45.06,51.06,14.88-30.23,41.77,19.41s-31.87,76.2-24.18,105.33h-56.61l-51.5-114.86,5.83-98.91,20.35-39.07Z"/></g><circle class="cls-10_order-confirmed-62 targetColor" cx="311.36" cy="185.05" r="69.62" style="fill: rgb(104, 225, 253);"/><circle class="cls-9_order-confirmed-62" cx="198.77" cy="57.76" r="11.09"/><circle class="cls-10_order-confirmed-62 targetColor" cx="230.02" cy="57.76" r="11.09" style="fill: rgb(104, 225, 253);"/><circle class="cls-7_order-confirmed-62" cx="259.93" cy="57.76" r="11.09"/><path class="cls-1_order-confirmed-62" d="m303.21,217.79c-1.35,0-2.62-.63-3.43-1.71l-21.43-28.44c-1.43-1.9-1.05-4.59.85-6.02,1.9-1.43,4.59-1.05,6.02.85l17.69,23.48,31.3-49.43c1.27-2.01,3.93-2.6,5.93-1.33,2.01,1.27,2.6,3.93,1.33,5.93l-34.62,54.68c-.75,1.19-2.05,1.94-3.46,2-.06,0-.12,0-.18,0Z"/></g><g id="person_order-confirmed-62"><path class="cls-2_order-confirmed-62" d="m243.7,295.51s24.53,3.55,9.87,29.2c-14.66,25.65-25.64,106.58-69.24,87l59.37-116.19Z"/><g class="cls-5_order-confirmed-62"><path class="cls-8_order-confirmed-62" d="m243.7,295.51s24.53,3.55,9.87,29.2c-14.66,25.65-25.64,106.58-69.24,87l59.37-116.19Z"/></g><polygon class="cls-2_order-confirmed-62" points="148.95 164.15 134.58 214.83 163.07 220.75 162.09 181.49 148.95 164.15"/><g class="cls-6_order-confirmed-62"><path class="cls-3_order-confirmed-62" d="m162.67,190.08s-5.2-1.72-8.68-6.68c0,0-.73,9.62,8.66,20.31l.02-13.63Z"/></g><path class="cls-2_order-confirmed-62" d="m178.46,165.62s-1.43,16.01-5.95,26.03c-1.83,4.06-6.69,5.9-10.72,4-5.01-2.35-11.11-6.98-11.38-15.65l-2.28-14.66s-1.1-9.24,8.96-14.07c10.06-4.83,22.73,4.64,21.37,14.35Z"/><path class="cls-10_order-confirmed-62 targetColor" d="m148.1,217.64l14.98,3.11s62,36.59,59.8,83.86c-2.2,47.26-32.42,102.77-32.42,102.77h-105.52S12.32,236.73,148.1,217.64Z" style="fill: rgb(104, 225, 253);"/><rect class="cls-9_order-confirmed-62" x="214.52" y="268.97" width="31.51" height="57" transform="translate(127.04 -64.27) rotate(21.82)"/><g class="cls-5_order-confirmed-62"><path class="cls-8_order-confirmed-62" d="m131.82,248.82s33.45,8.84,34,52.25c.55,43.42-3.3,71.99,31.33,69.25l-87.12,37.06h-25.1s-15.52-35.43-17.88-74.99c-2.35-39.56,39.01-89.66,64.76-83.57Z"/></g><polygon class="cls-7_order-confirmed-62" points="84.93 407.38 80.64 475.83 217.48 471.99 190.45 407.38 84.93 407.38"/><path class="cls-2_order-confirmed-62" d="m159.23,176.19s.97-6.11-3.7-6.46c-4.66-.34-6.11,8.48-.03,10.41l3.73-3.95Z"/><path class="cls-2_order-confirmed-62" d="m105.43,241.39s26.86-5.37,36.36,23.55c9.5,28.92.18,110.25,20.34,117.31,20.16,7.06,63.13-64.01,63.13-64.01,0,0-.41-23.14,15.29-29.75,15.7-6.61,5.78,28.1-2.48,36.36-8.26,8.26-30.16,102.48-94.21,100.41-64.05-2.07-90.49-159.91-38.43-183.88Z"/><path class="cls-2_order-confirmed-62" d="m177.04,175.67l3.33,6.88c.82,1.7-.4,3.68-2.29,3.7l-6.25.06,5.22-10.64Z"/><path class="cls-7_order-confirmed-62" d="m178.56,144.85s15.64,18.4-4.61,22.26c-20.25,3.85-24.42,7.48-22.48,28.03,1.94,20.54,9.96,39.37-16.9,52.22-26.85,12.86-3.77,34.33-8.72,59.61-4.95,25.28-28.58,42.58-58.8,25.41-30.23-17.17-48.91-61.14-16.49-87.51,32.42-26.38,73.09-32.7,73.09-75.15s33.96-44.65,54.9-24.87Z"/></g></svg>